<mxfile host="app.diagrams.net" agent="Mozilla/5.0 (Windows NT 10.0; Win64; x64) AppleWebKit/537.36 (KHTML, like Gecko) Chrome/128.0.0.0 Safari/537.36" version="24.7.14">
  <diagram name="Trang-1" id="NeQWwumhXoHZvLUhdxmN">
    <mxGraphModel dx="664" dy="272" grid="1" gridSize="10" guides="1" tooltips="1" connect="1" arrows="1" fold="1" page="1" pageScale="1" pageWidth="1654" pageHeight="1169" math="0" shadow="0">
      <root>
        <mxCell id="0" />
        <mxCell id="1" parent="0" />
        <mxCell id="3Oip8ub-MyP_PfwpptW2-1" value="" style="swimlane;startSize=0;" vertex="1" parent="1">
          <mxGeometry x="240" y="120" width="1160" height="920" as="geometry" />
        </mxCell>
        <mxCell id="3Oip8ub-MyP_PfwpptW2-2" style="edgeStyle=orthogonalEdgeStyle;rounded=0;orthogonalLoop=1;jettySize=auto;html=1;exitX=1;exitY=0.5;exitDx=0;exitDy=0;entryX=0;entryY=0.5;entryDx=0;entryDy=0;" edge="1" parent="3Oip8ub-MyP_PfwpptW2-1" source="3Oip8ub-MyP_PfwpptW2-3" target="3Oip8ub-MyP_PfwpptW2-18">
          <mxGeometry relative="1" as="geometry" />
        </mxCell>
        <mxCell id="3Oip8ub-MyP_PfwpptW2-3" value="Đăng nhập" style="ellipse;whiteSpace=wrap;html=1;" vertex="1" parent="3Oip8ub-MyP_PfwpptW2-1">
          <mxGeometry x="80" y="40" width="120" height="80" as="geometry" />
        </mxCell>
        <mxCell id="3Oip8ub-MyP_PfwpptW2-4" style="edgeStyle=orthogonalEdgeStyle;rounded=0;orthogonalLoop=1;jettySize=auto;html=1;exitX=1;exitY=0.5;exitDx=0;exitDy=0;entryX=0;entryY=0.75;entryDx=0;entryDy=0;" edge="1" parent="3Oip8ub-MyP_PfwpptW2-1" source="3Oip8ub-MyP_PfwpptW2-5" target="3Oip8ub-MyP_PfwpptW2-19">
          <mxGeometry relative="1" as="geometry" />
        </mxCell>
        <mxCell id="3Oip8ub-MyP_PfwpptW2-5" value="Đăng xuất" style="ellipse;whiteSpace=wrap;html=1;" vertex="1" parent="3Oip8ub-MyP_PfwpptW2-1">
          <mxGeometry x="80" y="130" width="120" height="80" as="geometry" />
        </mxCell>
        <mxCell id="3Oip8ub-MyP_PfwpptW2-6" style="edgeStyle=orthogonalEdgeStyle;rounded=0;orthogonalLoop=1;jettySize=auto;html=1;entryX=0;entryY=0.5;entryDx=0;entryDy=0;dashed=1;" edge="1" parent="3Oip8ub-MyP_PfwpptW2-1" source="3Oip8ub-MyP_PfwpptW2-9" target="3Oip8ub-MyP_PfwpptW2-20">
          <mxGeometry relative="1" as="geometry" />
        </mxCell>
        <mxCell id="3Oip8ub-MyP_PfwpptW2-7" style="edgeStyle=orthogonalEdgeStyle;rounded=0;orthogonalLoop=1;jettySize=auto;html=1;entryX=0;entryY=0.5;entryDx=0;entryDy=0;dashed=1;" edge="1" parent="3Oip8ub-MyP_PfwpptW2-1" source="3Oip8ub-MyP_PfwpptW2-9" target="3Oip8ub-MyP_PfwpptW2-22">
          <mxGeometry relative="1" as="geometry" />
        </mxCell>
        <mxCell id="3Oip8ub-MyP_PfwpptW2-8" style="edgeStyle=orthogonalEdgeStyle;rounded=0;orthogonalLoop=1;jettySize=auto;html=1;entryX=0;entryY=0.5;entryDx=0;entryDy=0;dashed=1;" edge="1" parent="3Oip8ub-MyP_PfwpptW2-1" source="3Oip8ub-MyP_PfwpptW2-9" target="3Oip8ub-MyP_PfwpptW2-21">
          <mxGeometry relative="1" as="geometry" />
        </mxCell>
        <mxCell id="3Oip8ub-MyP_PfwpptW2-9" value="Xem và đặt tour" style="ellipse;whiteSpace=wrap;html=1;" vertex="1" parent="3Oip8ub-MyP_PfwpptW2-1">
          <mxGeometry x="80" y="220" width="120" height="80" as="geometry" />
        </mxCell>
        <mxCell id="3Oip8ub-MyP_PfwpptW2-10" style="edgeStyle=orthogonalEdgeStyle;rounded=0;orthogonalLoop=1;jettySize=auto;html=1;entryX=0;entryY=0.5;entryDx=0;entryDy=0;dashed=1;" edge="1" parent="3Oip8ub-MyP_PfwpptW2-1" source="3Oip8ub-MyP_PfwpptW2-11" target="3Oip8ub-MyP_PfwpptW2-28">
          <mxGeometry relative="1" as="geometry" />
        </mxCell>
        <mxCell id="3Oip8ub-MyP_PfwpptW2-11" value="Xem lịch sử&amp;nbsp;&lt;div&gt;đặt tour&lt;/div&gt;" style="ellipse;whiteSpace=wrap;html=1;" vertex="1" parent="3Oip8ub-MyP_PfwpptW2-1">
          <mxGeometry x="80" y="800" width="120" height="80" as="geometry" />
        </mxCell>
        <mxCell id="3Oip8ub-MyP_PfwpptW2-12" style="edgeStyle=orthogonalEdgeStyle;rounded=0;orthogonalLoop=1;jettySize=auto;html=1;entryX=0;entryY=0.5;entryDx=0;entryDy=0;" edge="1" parent="3Oip8ub-MyP_PfwpptW2-1" source="3Oip8ub-MyP_PfwpptW2-13" target="3Oip8ub-MyP_PfwpptW2-27">
          <mxGeometry relative="1" as="geometry" />
        </mxCell>
        <mxCell id="3Oip8ub-MyP_PfwpptW2-13" value="Thanh toán" style="ellipse;whiteSpace=wrap;html=1;" vertex="1" parent="3Oip8ub-MyP_PfwpptW2-1">
          <mxGeometry x="80" y="710" width="120" height="80" as="geometry" />
        </mxCell>
        <mxCell id="3Oip8ub-MyP_PfwpptW2-14" style="edgeStyle=orthogonalEdgeStyle;rounded=0;orthogonalLoop=1;jettySize=auto;html=1;exitX=1;exitY=0.5;exitDx=0;exitDy=0;entryX=0;entryY=0.5;entryDx=0;entryDy=0;" edge="1" parent="3Oip8ub-MyP_PfwpptW2-1" source="3Oip8ub-MyP_PfwpptW2-16" target="3Oip8ub-MyP_PfwpptW2-24">
          <mxGeometry relative="1" as="geometry" />
        </mxCell>
        <mxCell id="3Oip8ub-MyP_PfwpptW2-15" style="edgeStyle=orthogonalEdgeStyle;rounded=0;orthogonalLoop=1;jettySize=auto;html=1;exitX=1;exitY=0.5;exitDx=0;exitDy=0;entryX=0;entryY=0.75;entryDx=0;entryDy=0;" edge="1" parent="3Oip8ub-MyP_PfwpptW2-1" source="3Oip8ub-MyP_PfwpptW2-16" target="3Oip8ub-MyP_PfwpptW2-25">
          <mxGeometry relative="1" as="geometry" />
        </mxCell>
        <mxCell id="3Oip8ub-MyP_PfwpptW2-16" value="Quản lý đơn&lt;div&gt;&amp;nbsp;đặt tour&lt;/div&gt;" style="ellipse;whiteSpace=wrap;html=1;" vertex="1" parent="3Oip8ub-MyP_PfwpptW2-1">
          <mxGeometry x="80" y="620" width="120" height="80" as="geometry" />
        </mxCell>
        <mxCell id="3Oip8ub-MyP_PfwpptW2-17" value="" style="endArrow=classic;html=1;rounded=0;" edge="1" parent="3Oip8ub-MyP_PfwpptW2-1">
          <mxGeometry width="50" height="50" relative="1" as="geometry">
            <mxPoint x="-100" y="259.52" as="sourcePoint" />
            <mxPoint x="70" y="260" as="targetPoint" />
          </mxGeometry>
        </mxCell>
        <mxCell id="3Oip8ub-MyP_PfwpptW2-18" value="Quản lý tài khoản" style="rounded=1;whiteSpace=wrap;html=1;" vertex="1" parent="3Oip8ub-MyP_PfwpptW2-1">
          <mxGeometry x="250" y="55" width="120" height="50" as="geometry" />
        </mxCell>
        <mxCell id="3Oip8ub-MyP_PfwpptW2-19" value="Khôi phục mật khẩu" style="rounded=1;whiteSpace=wrap;html=1;" vertex="1" parent="3Oip8ub-MyP_PfwpptW2-1">
          <mxGeometry x="250" y="140" width="120" height="50" as="geometry" />
        </mxCell>
        <mxCell id="3Oip8ub-MyP_PfwpptW2-20" value="Tìm kiếm tour" style="rounded=1;whiteSpace=wrap;html=1;" vertex="1" parent="3Oip8ub-MyP_PfwpptW2-1">
          <mxGeometry x="250" y="210" width="120" height="30" as="geometry" />
        </mxCell>
        <mxCell id="3Oip8ub-MyP_PfwpptW2-21" value="Xem chi tiết tour" style="rounded=1;whiteSpace=wrap;html=1;" vertex="1" parent="3Oip8ub-MyP_PfwpptW2-1">
          <mxGeometry x="280" y="250" width="120" height="30" as="geometry" />
        </mxCell>
        <mxCell id="3Oip8ub-MyP_PfwpptW2-22" value="Đặt cọc" style="rounded=1;whiteSpace=wrap;html=1;" vertex="1" parent="3Oip8ub-MyP_PfwpptW2-1">
          <mxGeometry x="250" y="290" width="120" height="30" as="geometry" />
        </mxCell>
        <mxCell id="3Oip8ub-MyP_PfwpptW2-23" value="" style="endArrow=classic;startArrow=classic;html=1;rounded=0;exitX=0.5;exitY=0;exitDx=0;exitDy=0;" edge="1" parent="3Oip8ub-MyP_PfwpptW2-1" source="3Oip8ub-MyP_PfwpptW2-19">
          <mxGeometry width="50" height="50" relative="1" as="geometry">
            <mxPoint x="260" y="160" as="sourcePoint" />
            <mxPoint x="310" y="110" as="targetPoint" />
          </mxGeometry>
        </mxCell>
        <mxCell id="3Oip8ub-MyP_PfwpptW2-24" value="Chỉnh sửa đơn đặt tour" style="rounded=1;whiteSpace=wrap;html=1;" vertex="1" parent="3Oip8ub-MyP_PfwpptW2-1">
          <mxGeometry x="250" y="620" width="120" height="30" as="geometry" />
        </mxCell>
        <mxCell id="3Oip8ub-MyP_PfwpptW2-25" value="Hủy đơn đặt tour" style="rounded=1;whiteSpace=wrap;html=1;" vertex="1" parent="3Oip8ub-MyP_PfwpptW2-1">
          <mxGeometry x="250" y="660" width="120" height="30" as="geometry" />
        </mxCell>
        <mxCell id="3Oip8ub-MyP_PfwpptW2-26" value="Lựa chọn phương thức thanh toán" style="rounded=1;whiteSpace=wrap;html=1;" vertex="1" parent="3Oip8ub-MyP_PfwpptW2-1">
          <mxGeometry x="250" y="720" width="120" height="30" as="geometry" />
        </mxCell>
        <mxCell id="3Oip8ub-MyP_PfwpptW2-27" value="Xác nhận thanh toán" style="rounded=1;whiteSpace=wrap;html=1;" vertex="1" parent="3Oip8ub-MyP_PfwpptW2-1">
          <mxGeometry x="250" y="760" width="120" height="30" as="geometry" />
        </mxCell>
        <mxCell id="3Oip8ub-MyP_PfwpptW2-28" value="Xem chi tiết các tour đã tham gia" style="rounded=1;whiteSpace=wrap;html=1;" vertex="1" parent="3Oip8ub-MyP_PfwpptW2-1">
          <mxGeometry x="250" y="825" width="120" height="30" as="geometry" />
        </mxCell>
        <mxCell id="3Oip8ub-MyP_PfwpptW2-29" style="edgeStyle=orthogonalEdgeStyle;rounded=0;orthogonalLoop=1;jettySize=auto;html=1;entryX=-0.034;entryY=0.459;entryDx=0;entryDy=0;entryPerimeter=0;" edge="1" parent="3Oip8ub-MyP_PfwpptW2-1" source="3Oip8ub-MyP_PfwpptW2-13" target="3Oip8ub-MyP_PfwpptW2-26">
          <mxGeometry relative="1" as="geometry" />
        </mxCell>
        <mxCell id="3Oip8ub-MyP_PfwpptW2-30" style="edgeStyle=orthogonalEdgeStyle;rounded=0;orthogonalLoop=1;jettySize=auto;html=1;exitX=1;exitY=0.5;exitDx=0;exitDy=0;entryX=0;entryY=0.5;entryDx=0;entryDy=0;" edge="1" parent="3Oip8ub-MyP_PfwpptW2-1" source="3Oip8ub-MyP_PfwpptW2-31" target="3Oip8ub-MyP_PfwpptW2-41">
          <mxGeometry relative="1" as="geometry" />
        </mxCell>
        <mxCell id="3Oip8ub-MyP_PfwpptW2-31" value="Xem danh sách tour" style="ellipse;whiteSpace=wrap;html=1;" vertex="1" parent="3Oip8ub-MyP_PfwpptW2-1">
          <mxGeometry x="170" y="340" width="80" height="50" as="geometry" />
        </mxCell>
        <mxCell id="3Oip8ub-MyP_PfwpptW2-32" style="edgeStyle=orthogonalEdgeStyle;rounded=0;orthogonalLoop=1;jettySize=auto;html=1;entryX=0;entryY=0.5;entryDx=0;entryDy=0;" edge="1" parent="3Oip8ub-MyP_PfwpptW2-1" source="3Oip8ub-MyP_PfwpptW2-34" target="3Oip8ub-MyP_PfwpptW2-42">
          <mxGeometry relative="1" as="geometry" />
        </mxCell>
        <mxCell id="3Oip8ub-MyP_PfwpptW2-33" style="edgeStyle=orthogonalEdgeStyle;rounded=0;orthogonalLoop=1;jettySize=auto;html=1;entryX=0;entryY=0.5;entryDx=0;entryDy=0;" edge="1" parent="3Oip8ub-MyP_PfwpptW2-1" source="3Oip8ub-MyP_PfwpptW2-34" target="3Oip8ub-MyP_PfwpptW2-43">
          <mxGeometry relative="1" as="geometry" />
        </mxCell>
        <mxCell id="3Oip8ub-MyP_PfwpptW2-34" value="Đặt tour" style="ellipse;whiteSpace=wrap;html=1;" vertex="1" parent="3Oip8ub-MyP_PfwpptW2-1">
          <mxGeometry x="150" y="410" width="80" height="50" as="geometry" />
        </mxCell>
        <mxCell id="3Oip8ub-MyP_PfwpptW2-35" style="edgeStyle=orthogonalEdgeStyle;rounded=0;orthogonalLoop=1;jettySize=auto;html=1;entryX=0;entryY=0.5;entryDx=0;entryDy=0;" edge="1" parent="3Oip8ub-MyP_PfwpptW2-1" source="3Oip8ub-MyP_PfwpptW2-37" target="3Oip8ub-MyP_PfwpptW2-44">
          <mxGeometry relative="1" as="geometry" />
        </mxCell>
        <mxCell id="3Oip8ub-MyP_PfwpptW2-36" style="edgeStyle=orthogonalEdgeStyle;rounded=0;orthogonalLoop=1;jettySize=auto;html=1;entryX=0;entryY=0.5;entryDx=0;entryDy=0;" edge="1" parent="3Oip8ub-MyP_PfwpptW2-1" source="3Oip8ub-MyP_PfwpptW2-37" target="3Oip8ub-MyP_PfwpptW2-45">
          <mxGeometry relative="1" as="geometry" />
        </mxCell>
        <mxCell id="3Oip8ub-MyP_PfwpptW2-37" value="Thanh toán" style="ellipse;whiteSpace=wrap;html=1;fontStyle=1" vertex="1" parent="3Oip8ub-MyP_PfwpptW2-1">
          <mxGeometry x="150" y="470" width="80" height="50" as="geometry" />
        </mxCell>
        <mxCell id="3Oip8ub-MyP_PfwpptW2-38" style="edgeStyle=orthogonalEdgeStyle;rounded=0;orthogonalLoop=1;jettySize=auto;html=1;entryX=0;entryY=0.5;entryDx=0;entryDy=0;dashed=1;" edge="1" parent="3Oip8ub-MyP_PfwpptW2-1" source="3Oip8ub-MyP_PfwpptW2-40" target="3Oip8ub-MyP_PfwpptW2-46">
          <mxGeometry relative="1" as="geometry">
            <Array as="points">
              <mxPoint x="260" y="565" />
              <mxPoint x="260" y="550" />
            </Array>
          </mxGeometry>
        </mxCell>
        <mxCell id="3Oip8ub-MyP_PfwpptW2-39" style="edgeStyle=orthogonalEdgeStyle;rounded=0;orthogonalLoop=1;jettySize=auto;html=1;entryX=0;entryY=0.5;entryDx=0;entryDy=0;dashed=1;" edge="1" parent="3Oip8ub-MyP_PfwpptW2-1" source="3Oip8ub-MyP_PfwpptW2-40" target="3Oip8ub-MyP_PfwpptW2-47">
          <mxGeometry relative="1" as="geometry">
            <Array as="points">
              <mxPoint x="260" y="565" />
              <mxPoint x="260" y="580" />
            </Array>
          </mxGeometry>
        </mxCell>
        <mxCell id="3Oip8ub-MyP_PfwpptW2-40" value="Liên hệ hỗ trợ" style="ellipse;whiteSpace=wrap;html=1;" vertex="1" parent="3Oip8ub-MyP_PfwpptW2-1">
          <mxGeometry x="170" y="540" width="80" height="50" as="geometry" />
        </mxCell>
        <mxCell id="3Oip8ub-MyP_PfwpptW2-41" value="Tìm kiếm tour" style="rounded=1;whiteSpace=wrap;html=1;" vertex="1" parent="3Oip8ub-MyP_PfwpptW2-1">
          <mxGeometry x="280" y="355" width="90" height="20" as="geometry" />
        </mxCell>
        <mxCell id="3Oip8ub-MyP_PfwpptW2-42" value="Cung cấp thông tin cá nhân" style="rounded=1;whiteSpace=wrap;html=1;" vertex="1" parent="3Oip8ub-MyP_PfwpptW2-1">
          <mxGeometry x="280" y="390" width="100" height="30" as="geometry" />
        </mxCell>
        <mxCell id="3Oip8ub-MyP_PfwpptW2-43" value="Chọn loại phòng và dịch vụ" style="rounded=1;whiteSpace=wrap;html=1;" vertex="1" parent="3Oip8ub-MyP_PfwpptW2-1">
          <mxGeometry x="295" y="430" width="95" height="30" as="geometry" />
        </mxCell>
        <mxCell id="3Oip8ub-MyP_PfwpptW2-44" value="Chọn phương thức thanh toán" style="rounded=1;whiteSpace=wrap;html=1;" vertex="1" parent="3Oip8ub-MyP_PfwpptW2-1">
          <mxGeometry x="280" y="470" width="100" height="30" as="geometry" />
        </mxCell>
        <mxCell id="3Oip8ub-MyP_PfwpptW2-45" value="Xác nhận thanh toán" style="rounded=1;whiteSpace=wrap;html=1;" vertex="1" parent="3Oip8ub-MyP_PfwpptW2-1">
          <mxGeometry x="285" y="510" width="125" height="20" as="geometry" />
        </mxCell>
        <mxCell id="3Oip8ub-MyP_PfwpptW2-46" value="Chat trực tuyến" style="rounded=1;whiteSpace=wrap;html=1;" vertex="1" parent="3Oip8ub-MyP_PfwpptW2-1">
          <mxGeometry x="280" y="540" width="100" height="20" as="geometry" />
        </mxCell>
        <mxCell id="3Oip8ub-MyP_PfwpptW2-47" value="Gọi điện hỗ trợ" style="rounded=1;whiteSpace=wrap;html=1;" vertex="1" parent="3Oip8ub-MyP_PfwpptW2-1">
          <mxGeometry x="280" y="570" width="90" height="20" as="geometry" />
        </mxCell>
        <mxCell id="3Oip8ub-MyP_PfwpptW2-48" value="" style="endArrow=classic;html=1;rounded=0;" edge="1" parent="3Oip8ub-MyP_PfwpptW2-1">
          <mxGeometry width="50" height="50" relative="1" as="geometry">
            <mxPoint x="70" y="500" as="sourcePoint" />
            <mxPoint x="140" y="500" as="targetPoint" />
          </mxGeometry>
        </mxCell>
        <mxCell id="3Oip8ub-MyP_PfwpptW2-49" style="edgeStyle=orthogonalEdgeStyle;rounded=0;orthogonalLoop=1;jettySize=auto;html=1;entryX=1;entryY=0.75;entryDx=0;entryDy=0;" edge="1" parent="3Oip8ub-MyP_PfwpptW2-1" source="3Oip8ub-MyP_PfwpptW2-52" target="3Oip8ub-MyP_PfwpptW2-68">
          <mxGeometry relative="1" as="geometry">
            <Array as="points">
              <mxPoint x="950" y="90" />
              <mxPoint x="950" y="43" />
            </Array>
          </mxGeometry>
        </mxCell>
        <mxCell id="3Oip8ub-MyP_PfwpptW2-50" style="edgeStyle=orthogonalEdgeStyle;rounded=0;orthogonalLoop=1;jettySize=auto;html=1;entryX=1;entryY=0.5;entryDx=0;entryDy=0;" edge="1" parent="3Oip8ub-MyP_PfwpptW2-1" source="3Oip8ub-MyP_PfwpptW2-52" target="3Oip8ub-MyP_PfwpptW2-70">
          <mxGeometry relative="1" as="geometry">
            <Array as="points">
              <mxPoint x="950" y="90" />
              <mxPoint x="950" y="110" />
              <mxPoint x="930" y="110" />
            </Array>
          </mxGeometry>
        </mxCell>
        <mxCell id="3Oip8ub-MyP_PfwpptW2-51" style="edgeStyle=orthogonalEdgeStyle;rounded=0;orthogonalLoop=1;jettySize=auto;html=1;entryX=1;entryY=0.5;entryDx=0;entryDy=0;" edge="1" parent="3Oip8ub-MyP_PfwpptW2-1" source="3Oip8ub-MyP_PfwpptW2-52" target="3Oip8ub-MyP_PfwpptW2-69">
          <mxGeometry relative="1" as="geometry" />
        </mxCell>
        <mxCell id="3Oip8ub-MyP_PfwpptW2-52" value="Quản lý tour du lịch" style="ellipse;whiteSpace=wrap;html=1;" vertex="1" parent="3Oip8ub-MyP_PfwpptW2-1">
          <mxGeometry x="960" y="50" width="120" height="80" as="geometry" />
        </mxCell>
        <mxCell id="3Oip8ub-MyP_PfwpptW2-53" style="edgeStyle=orthogonalEdgeStyle;rounded=0;orthogonalLoop=1;jettySize=auto;html=1;exitX=0;exitY=0.5;exitDx=0;exitDy=0;entryX=1;entryY=0.75;entryDx=0;entryDy=0;" edge="1" parent="3Oip8ub-MyP_PfwpptW2-1" source="3Oip8ub-MyP_PfwpptW2-57" target="3Oip8ub-MyP_PfwpptW2-71">
          <mxGeometry relative="1" as="geometry">
            <Array as="points">
              <mxPoint x="990" y="240" />
            </Array>
          </mxGeometry>
        </mxCell>
        <mxCell id="3Oip8ub-MyP_PfwpptW2-54" style="edgeStyle=orthogonalEdgeStyle;rounded=0;orthogonalLoop=1;jettySize=auto;html=1;entryX=1;entryY=0.5;entryDx=0;entryDy=0;" edge="1" parent="3Oip8ub-MyP_PfwpptW2-1" source="3Oip8ub-MyP_PfwpptW2-57" target="3Oip8ub-MyP_PfwpptW2-74">
          <mxGeometry relative="1" as="geometry">
            <Array as="points">
              <mxPoint x="990" y="240" />
            </Array>
          </mxGeometry>
        </mxCell>
        <mxCell id="3Oip8ub-MyP_PfwpptW2-55" style="edgeStyle=orthogonalEdgeStyle;rounded=0;orthogonalLoop=1;jettySize=auto;html=1;entryX=1;entryY=0.5;entryDx=0;entryDy=0;" edge="1" parent="3Oip8ub-MyP_PfwpptW2-1" source="3Oip8ub-MyP_PfwpptW2-57" target="3Oip8ub-MyP_PfwpptW2-72">
          <mxGeometry relative="1" as="geometry" />
        </mxCell>
        <mxCell id="3Oip8ub-MyP_PfwpptW2-56" style="edgeStyle=orthogonalEdgeStyle;rounded=0;orthogonalLoop=1;jettySize=auto;html=1;entryX=1;entryY=0.5;entryDx=0;entryDy=0;" edge="1" parent="3Oip8ub-MyP_PfwpptW2-1" source="3Oip8ub-MyP_PfwpptW2-57" target="3Oip8ub-MyP_PfwpptW2-73">
          <mxGeometry relative="1" as="geometry" />
        </mxCell>
        <mxCell id="3Oip8ub-MyP_PfwpptW2-57" value="Quản lý người dùng" style="ellipse;whiteSpace=wrap;html=1;" vertex="1" parent="3Oip8ub-MyP_PfwpptW2-1">
          <mxGeometry x="1000" y="200" width="120" height="80" as="geometry" />
        </mxCell>
        <mxCell id="3Oip8ub-MyP_PfwpptW2-58" style="edgeStyle=orthogonalEdgeStyle;rounded=0;orthogonalLoop=1;jettySize=auto;html=1;entryX=1;entryY=0.5;entryDx=0;entryDy=0;" edge="1" parent="3Oip8ub-MyP_PfwpptW2-1" source="3Oip8ub-MyP_PfwpptW2-63" target="3Oip8ub-MyP_PfwpptW2-78">
          <mxGeometry relative="1" as="geometry" />
        </mxCell>
        <mxCell id="3Oip8ub-MyP_PfwpptW2-59" style="edgeStyle=orthogonalEdgeStyle;rounded=0;orthogonalLoop=1;jettySize=auto;html=1;entryX=1;entryY=0.5;entryDx=0;entryDy=0;" edge="1" parent="3Oip8ub-MyP_PfwpptW2-1" source="3Oip8ub-MyP_PfwpptW2-63" target="3Oip8ub-MyP_PfwpptW2-80">
          <mxGeometry relative="1" as="geometry" />
        </mxCell>
        <mxCell id="3Oip8ub-MyP_PfwpptW2-60" value="" style="edgeStyle=orthogonalEdgeStyle;rounded=0;orthogonalLoop=1;jettySize=auto;html=1;" edge="1" parent="3Oip8ub-MyP_PfwpptW2-1" source="3Oip8ub-MyP_PfwpptW2-63" target="3Oip8ub-MyP_PfwpptW2-80">
          <mxGeometry relative="1" as="geometry" />
        </mxCell>
        <mxCell id="3Oip8ub-MyP_PfwpptW2-61" value="" style="edgeStyle=orthogonalEdgeStyle;rounded=0;orthogonalLoop=1;jettySize=auto;html=1;" edge="1" parent="3Oip8ub-MyP_PfwpptW2-1" source="3Oip8ub-MyP_PfwpptW2-63" target="3Oip8ub-MyP_PfwpptW2-80">
          <mxGeometry relative="1" as="geometry" />
        </mxCell>
        <mxCell id="3Oip8ub-MyP_PfwpptW2-62" style="edgeStyle=orthogonalEdgeStyle;rounded=0;orthogonalLoop=1;jettySize=auto;html=1;" edge="1" parent="3Oip8ub-MyP_PfwpptW2-1" source="3Oip8ub-MyP_PfwpptW2-63" target="3Oip8ub-MyP_PfwpptW2-79">
          <mxGeometry relative="1" as="geometry" />
        </mxCell>
        <mxCell id="3Oip8ub-MyP_PfwpptW2-63" value="Xem báo cáo" style="ellipse;whiteSpace=wrap;html=1;" vertex="1" parent="3Oip8ub-MyP_PfwpptW2-1">
          <mxGeometry x="960" y="790" width="120" height="80" as="geometry" />
        </mxCell>
        <mxCell id="3Oip8ub-MyP_PfwpptW2-64" style="edgeStyle=orthogonalEdgeStyle;rounded=0;orthogonalLoop=1;jettySize=auto;html=1;entryX=1;entryY=0.5;entryDx=0;entryDy=0;" edge="1" parent="3Oip8ub-MyP_PfwpptW2-1" source="3Oip8ub-MyP_PfwpptW2-67" target="3Oip8ub-MyP_PfwpptW2-75">
          <mxGeometry relative="1" as="geometry" />
        </mxCell>
        <mxCell id="3Oip8ub-MyP_PfwpptW2-65" style="edgeStyle=orthogonalEdgeStyle;rounded=0;orthogonalLoop=1;jettySize=auto;html=1;entryX=1;entryY=0.5;entryDx=0;entryDy=0;" edge="1" parent="3Oip8ub-MyP_PfwpptW2-1" source="3Oip8ub-MyP_PfwpptW2-67" target="3Oip8ub-MyP_PfwpptW2-77">
          <mxGeometry relative="1" as="geometry" />
        </mxCell>
        <mxCell id="3Oip8ub-MyP_PfwpptW2-66" style="edgeStyle=orthogonalEdgeStyle;rounded=0;orthogonalLoop=1;jettySize=auto;html=1;" edge="1" parent="3Oip8ub-MyP_PfwpptW2-1" source="3Oip8ub-MyP_PfwpptW2-67" target="3Oip8ub-MyP_PfwpptW2-76">
          <mxGeometry relative="1" as="geometry" />
        </mxCell>
        <mxCell id="3Oip8ub-MyP_PfwpptW2-67" value="Quản lý nhân viên" style="ellipse;whiteSpace=wrap;html=1;" vertex="1" parent="3Oip8ub-MyP_PfwpptW2-1">
          <mxGeometry x="960" y="690" width="120" height="80" as="geometry" />
        </mxCell>
        <mxCell id="3Oip8ub-MyP_PfwpptW2-68" value="Tạo tour mới" style="rounded=1;whiteSpace=wrap;html=1;" vertex="1" parent="3Oip8ub-MyP_PfwpptW2-1">
          <mxGeometry x="810" y="20" width="120" height="30" as="geometry" />
        </mxCell>
        <mxCell id="3Oip8ub-MyP_PfwpptW2-69" value="Chỉnh sửa tour" style="rounded=1;whiteSpace=wrap;html=1;" vertex="1" parent="3Oip8ub-MyP_PfwpptW2-1">
          <mxGeometry x="740" y="55" width="120" height="30" as="geometry" />
        </mxCell>
        <mxCell id="3Oip8ub-MyP_PfwpptW2-70" value="Quản lý danh mục tour" style="rounded=1;whiteSpace=wrap;html=1;" vertex="1" parent="3Oip8ub-MyP_PfwpptW2-1">
          <mxGeometry x="790" y="100" width="120" height="30" as="geometry" />
        </mxCell>
        <mxCell id="3Oip8ub-MyP_PfwpptW2-71" value="Thêm người dùng" style="rounded=1;whiteSpace=wrap;html=1;" vertex="1" parent="3Oip8ub-MyP_PfwpptW2-1">
          <mxGeometry x="860" y="160" width="120" height="30" as="geometry" />
        </mxCell>
        <mxCell id="3Oip8ub-MyP_PfwpptW2-72" value="Sửa thông tin người dùng" style="rounded=1;whiteSpace=wrap;html=1;" vertex="1" parent="3Oip8ub-MyP_PfwpptW2-1">
          <mxGeometry x="760" y="215" width="160" height="30" as="geometry" />
        </mxCell>
        <mxCell id="3Oip8ub-MyP_PfwpptW2-73" value="Xóa người dùng" style="rounded=1;whiteSpace=wrap;html=1;" vertex="1" parent="3Oip8ub-MyP_PfwpptW2-1">
          <mxGeometry x="800" y="250" width="120" height="30" as="geometry" />
        </mxCell>
        <mxCell id="3Oip8ub-MyP_PfwpptW2-74" value="Quản lý quyền hạn" style="rounded=1;whiteSpace=wrap;html=1;" vertex="1" parent="3Oip8ub-MyP_PfwpptW2-1">
          <mxGeometry x="860" y="290" width="120" height="30" as="geometry" />
        </mxCell>
        <mxCell id="3Oip8ub-MyP_PfwpptW2-75" value="Thêm nhân viên" style="rounded=1;whiteSpace=wrap;html=1;" vertex="1" parent="3Oip8ub-MyP_PfwpptW2-1">
          <mxGeometry x="800" y="650" width="120" height="30" as="geometry" />
        </mxCell>
        <mxCell id="3Oip8ub-MyP_PfwpptW2-76" value="Sửa thông tin nhân viên" style="rounded=1;whiteSpace=wrap;html=1;" vertex="1" parent="3Oip8ub-MyP_PfwpptW2-1">
          <mxGeometry x="800" y="690" width="120" height="30" as="geometry" />
        </mxCell>
        <mxCell id="3Oip8ub-MyP_PfwpptW2-77" value="Xóa nhân viên" style="rounded=1;whiteSpace=wrap;html=1;" vertex="1" parent="3Oip8ub-MyP_PfwpptW2-1">
          <mxGeometry x="800" y="730" width="120" height="30" as="geometry" />
        </mxCell>
        <mxCell id="3Oip8ub-MyP_PfwpptW2-78" value="Báo cáo doanh thu" style="rounded=1;whiteSpace=wrap;html=1;" vertex="1" parent="3Oip8ub-MyP_PfwpptW2-1">
          <mxGeometry x="800" y="770" width="120" height="30" as="geometry" />
        </mxCell>
        <mxCell id="3Oip8ub-MyP_PfwpptW2-79" value="Báo cáo khách hàng" style="rounded=1;whiteSpace=wrap;html=1;" vertex="1" parent="3Oip8ub-MyP_PfwpptW2-1">
          <mxGeometry x="800" y="810" width="120" height="30" as="geometry" />
        </mxCell>
        <mxCell id="3Oip8ub-MyP_PfwpptW2-80" value="Báo cáo hiệu quả nhân viên" style="rounded=1;whiteSpace=wrap;html=1;" vertex="1" parent="3Oip8ub-MyP_PfwpptW2-1">
          <mxGeometry x="800" y="850" width="120" height="30" as="geometry" />
        </mxCell>
        <mxCell id="3Oip8ub-MyP_PfwpptW2-81" style="edgeStyle=orthogonalEdgeStyle;rounded=0;orthogonalLoop=1;jettySize=auto;html=1;entryX=1;entryY=0.5;entryDx=0;entryDy=0;" edge="1" parent="3Oip8ub-MyP_PfwpptW2-1" source="3Oip8ub-MyP_PfwpptW2-83" target="3Oip8ub-MyP_PfwpptW2-90">
          <mxGeometry relative="1" as="geometry" />
        </mxCell>
        <mxCell id="3Oip8ub-MyP_PfwpptW2-82" style="edgeStyle=orthogonalEdgeStyle;rounded=0;orthogonalLoop=1;jettySize=auto;html=1;entryX=1;entryY=0.75;entryDx=0;entryDy=0;" edge="1" parent="3Oip8ub-MyP_PfwpptW2-1" source="3Oip8ub-MyP_PfwpptW2-83" target="3Oip8ub-MyP_PfwpptW2-91">
          <mxGeometry relative="1" as="geometry" />
        </mxCell>
        <mxCell id="3Oip8ub-MyP_PfwpptW2-83" value="Hỗ trợ khách hàng" style="ellipse;whiteSpace=wrap;html=1;" vertex="1" parent="3Oip8ub-MyP_PfwpptW2-1">
          <mxGeometry x="960" y="410" width="80" height="50" as="geometry" />
        </mxCell>
        <mxCell id="3Oip8ub-MyP_PfwpptW2-84" value="" style="edgeStyle=orthogonalEdgeStyle;rounded=0;orthogonalLoop=1;jettySize=auto;html=1;" edge="1" parent="3Oip8ub-MyP_PfwpptW2-1" source="3Oip8ub-MyP_PfwpptW2-86" target="3Oip8ub-MyP_PfwpptW2-93">
          <mxGeometry relative="1" as="geometry" />
        </mxCell>
        <mxCell id="3Oip8ub-MyP_PfwpptW2-85" style="edgeStyle=orthogonalEdgeStyle;rounded=0;orthogonalLoop=1;jettySize=auto;html=1;entryX=1;entryY=0.5;entryDx=0;entryDy=0;" edge="1" parent="3Oip8ub-MyP_PfwpptW2-1" source="3Oip8ub-MyP_PfwpptW2-86" target="3Oip8ub-MyP_PfwpptW2-92">
          <mxGeometry relative="1" as="geometry" />
        </mxCell>
        <mxCell id="3Oip8ub-MyP_PfwpptW2-86" value="Xem đơn đặt tour" style="ellipse;whiteSpace=wrap;html=1;" vertex="1" parent="3Oip8ub-MyP_PfwpptW2-1">
          <mxGeometry x="960" y="470" width="80" height="50" as="geometry" />
        </mxCell>
        <mxCell id="3Oip8ub-MyP_PfwpptW2-87" style="edgeStyle=orthogonalEdgeStyle;rounded=0;orthogonalLoop=1;jettySize=auto;html=1;entryX=1;entryY=0.5;entryDx=0;entryDy=0;" edge="1" parent="3Oip8ub-MyP_PfwpptW2-1" source="3Oip8ub-MyP_PfwpptW2-88" target="3Oip8ub-MyP_PfwpptW2-89">
          <mxGeometry relative="1" as="geometry" />
        </mxCell>
        <mxCell id="3Oip8ub-MyP_PfwpptW2-88" value="Xử lý thanh toán" style="ellipse;whiteSpace=wrap;html=1;" vertex="1" parent="3Oip8ub-MyP_PfwpptW2-1">
          <mxGeometry x="940" y="540" width="80" height="50" as="geometry" />
        </mxCell>
        <mxCell id="3Oip8ub-MyP_PfwpptW2-89" value="Xác nhận thanh toán" style="rounded=1;whiteSpace=wrap;html=1;" vertex="1" parent="3Oip8ub-MyP_PfwpptW2-1">
          <mxGeometry x="770" y="550" width="120" height="30" as="geometry" />
        </mxCell>
        <mxCell id="3Oip8ub-MyP_PfwpptW2-90" value="Tư vấn tour" style="rounded=1;whiteSpace=wrap;html=1;" vertex="1" parent="3Oip8ub-MyP_PfwpptW2-1">
          <mxGeometry x="800" y="390" width="120" height="30" as="geometry" />
        </mxCell>
        <mxCell id="3Oip8ub-MyP_PfwpptW2-91" value="Xử lý khiếu nại" style="rounded=1;whiteSpace=wrap;html=1;" vertex="1" parent="3Oip8ub-MyP_PfwpptW2-1">
          <mxGeometry x="800" y="435" width="120" height="25" as="geometry" />
        </mxCell>
        <mxCell id="3Oip8ub-MyP_PfwpptW2-92" value="Xác nhận đơn đặt tour" style="rounded=1;whiteSpace=wrap;html=1;" vertex="1" parent="3Oip8ub-MyP_PfwpptW2-1">
          <mxGeometry x="780" y="480" width="140" height="20" as="geometry" />
        </mxCell>
        <mxCell id="3Oip8ub-MyP_PfwpptW2-93" value="Cập nhật trạng thái đơn đặt tour" style="rounded=1;whiteSpace=wrap;html=1;" vertex="1" parent="3Oip8ub-MyP_PfwpptW2-1">
          <mxGeometry x="740" y="510" width="180" height="30" as="geometry" />
        </mxCell>
        <mxCell id="3Oip8ub-MyP_PfwpptW2-94" value="" style="edgeStyle=orthogonalEdgeStyle;rounded=0;orthogonalLoop=1;jettySize=auto;html=1;" edge="1" parent="3Oip8ub-MyP_PfwpptW2-1" source="3Oip8ub-MyP_PfwpptW2-95" target="3Oip8ub-MyP_PfwpptW2-119">
          <mxGeometry relative="1" as="geometry" />
        </mxCell>
        <mxCell id="3Oip8ub-MyP_PfwpptW2-95" value="Quản lý liên hệ" style="ellipse;whiteSpace=wrap;html=1;" vertex="1" parent="3Oip8ub-MyP_PfwpptW2-1">
          <mxGeometry x="587" y="670" width="80" height="50" as="geometry" />
        </mxCell>
        <mxCell id="3Oip8ub-MyP_PfwpptW2-96" value="Quản lý nhân viên" style="ellipse;whiteSpace=wrap;html=1;" vertex="1" parent="3Oip8ub-MyP_PfwpptW2-1">
          <mxGeometry x="587" y="580" width="80" height="50" as="geometry" />
        </mxCell>
        <mxCell id="3Oip8ub-MyP_PfwpptW2-97" style="edgeStyle=orthogonalEdgeStyle;rounded=0;orthogonalLoop=1;jettySize=auto;html=1;entryX=1;entryY=0.5;entryDx=0;entryDy=0;" edge="1" parent="3Oip8ub-MyP_PfwpptW2-1" source="3Oip8ub-MyP_PfwpptW2-99" target="3Oip8ub-MyP_PfwpptW2-121">
          <mxGeometry relative="1" as="geometry" />
        </mxCell>
        <mxCell id="3Oip8ub-MyP_PfwpptW2-98" style="edgeStyle=orthogonalEdgeStyle;rounded=0;orthogonalLoop=1;jettySize=auto;html=1;entryX=1;entryY=0.5;entryDx=0;entryDy=0;" edge="1" parent="3Oip8ub-MyP_PfwpptW2-1" source="3Oip8ub-MyP_PfwpptW2-99" target="3Oip8ub-MyP_PfwpptW2-122">
          <mxGeometry relative="1" as="geometry" />
        </mxCell>
        <mxCell id="3Oip8ub-MyP_PfwpptW2-99" value="Quản lý tài khoản" style="ellipse;whiteSpace=wrap;html=1;" vertex="1" parent="3Oip8ub-MyP_PfwpptW2-1">
          <mxGeometry x="587" y="500" width="80" height="50" as="geometry" />
        </mxCell>
        <mxCell id="3Oip8ub-MyP_PfwpptW2-100" style="edgeStyle=orthogonalEdgeStyle;rounded=0;orthogonalLoop=1;jettySize=auto;html=1;" edge="1" parent="3Oip8ub-MyP_PfwpptW2-1" source="3Oip8ub-MyP_PfwpptW2-101" target="3Oip8ub-MyP_PfwpptW2-118">
          <mxGeometry relative="1" as="geometry" />
        </mxCell>
        <mxCell id="3Oip8ub-MyP_PfwpptW2-101" value="Quản lý bình luận" style="ellipse;whiteSpace=wrap;html=1;" vertex="1" parent="3Oip8ub-MyP_PfwpptW2-1">
          <mxGeometry x="587" y="760" width="80" height="50" as="geometry" />
        </mxCell>
        <mxCell id="3Oip8ub-MyP_PfwpptW2-102" style="edgeStyle=orthogonalEdgeStyle;rounded=0;orthogonalLoop=1;jettySize=auto;html=1;" edge="1" parent="3Oip8ub-MyP_PfwpptW2-1" source="3Oip8ub-MyP_PfwpptW2-103" target="3Oip8ub-MyP_PfwpptW2-117">
          <mxGeometry relative="1" as="geometry" />
        </mxCell>
        <mxCell id="3Oip8ub-MyP_PfwpptW2-103" value="Quản lý thống kê" style="ellipse;whiteSpace=wrap;html=1;" vertex="1" parent="3Oip8ub-MyP_PfwpptW2-1">
          <mxGeometry x="587" y="840" width="80" height="50" as="geometry" />
        </mxCell>
        <mxCell id="3Oip8ub-MyP_PfwpptW2-104" value="" style="edgeStyle=orthogonalEdgeStyle;rounded=0;orthogonalLoop=1;jettySize=auto;html=1;" edge="1" parent="3Oip8ub-MyP_PfwpptW2-1" source="3Oip8ub-MyP_PfwpptW2-106" target="3Oip8ub-MyP_PfwpptW2-125">
          <mxGeometry relative="1" as="geometry" />
        </mxCell>
        <mxCell id="3Oip8ub-MyP_PfwpptW2-105" style="edgeStyle=orthogonalEdgeStyle;rounded=0;orthogonalLoop=1;jettySize=auto;html=1;entryX=1;entryY=0.5;entryDx=0;entryDy=0;" edge="1" parent="3Oip8ub-MyP_PfwpptW2-1" source="3Oip8ub-MyP_PfwpptW2-106" target="3Oip8ub-MyP_PfwpptW2-124">
          <mxGeometry relative="1" as="geometry" />
        </mxCell>
        <mxCell id="3Oip8ub-MyP_PfwpptW2-106" value="Quản lý chung" style="ellipse;whiteSpace=wrap;html=1;" vertex="1" parent="3Oip8ub-MyP_PfwpptW2-1">
          <mxGeometry x="587" y="430" width="80" height="50" as="geometry" />
        </mxCell>
        <mxCell id="3Oip8ub-MyP_PfwpptW2-107" value="Quản lý quảng cáo" style="ellipse;whiteSpace=wrap;html=1;" vertex="1" parent="3Oip8ub-MyP_PfwpptW2-1">
          <mxGeometry x="587" y="355" width="80" height="50" as="geometry" />
        </mxCell>
        <mxCell id="3Oip8ub-MyP_PfwpptW2-108" style="edgeStyle=orthogonalEdgeStyle;rounded=0;orthogonalLoop=1;jettySize=auto;html=1;" edge="1" parent="3Oip8ub-MyP_PfwpptW2-1" source="3Oip8ub-MyP_PfwpptW2-109" target="3Oip8ub-MyP_PfwpptW2-128">
          <mxGeometry relative="1" as="geometry" />
        </mxCell>
        <mxCell id="3Oip8ub-MyP_PfwpptW2-109" value="Quản lý dịch vụ" style="ellipse;whiteSpace=wrap;html=1;" vertex="1" parent="3Oip8ub-MyP_PfwpptW2-1">
          <mxGeometry x="587" y="280" width="80" height="50" as="geometry" />
        </mxCell>
        <mxCell id="3Oip8ub-MyP_PfwpptW2-110" style="edgeStyle=orthogonalEdgeStyle;rounded=0;orthogonalLoop=1;jettySize=auto;html=1;entryX=1;entryY=0.5;entryDx=0;entryDy=0;" edge="1" parent="3Oip8ub-MyP_PfwpptW2-1" source="3Oip8ub-MyP_PfwpptW2-112" target="3Oip8ub-MyP_PfwpptW2-129">
          <mxGeometry relative="1" as="geometry" />
        </mxCell>
        <mxCell id="3Oip8ub-MyP_PfwpptW2-111" style="edgeStyle=orthogonalEdgeStyle;rounded=0;orthogonalLoop=1;jettySize=auto;html=1;entryX=1;entryY=0.5;entryDx=0;entryDy=0;" edge="1" parent="3Oip8ub-MyP_PfwpptW2-1" source="3Oip8ub-MyP_PfwpptW2-112" target="3Oip8ub-MyP_PfwpptW2-131">
          <mxGeometry relative="1" as="geometry" />
        </mxCell>
        <mxCell id="3Oip8ub-MyP_PfwpptW2-112" value="Quản lý đơn đặt tour" style="ellipse;whiteSpace=wrap;html=1;" vertex="1" parent="3Oip8ub-MyP_PfwpptW2-1">
          <mxGeometry x="587" y="205" width="80" height="50" as="geometry" />
        </mxCell>
        <mxCell id="3Oip8ub-MyP_PfwpptW2-113" value="Quản lý tour" style="ellipse;whiteSpace=wrap;html=1;" vertex="1" parent="3Oip8ub-MyP_PfwpptW2-1">
          <mxGeometry x="587" y="130" width="80" height="50" as="geometry" />
        </mxCell>
        <mxCell id="3Oip8ub-MyP_PfwpptW2-114" value="" style="edgeStyle=orthogonalEdgeStyle;rounded=0;orthogonalLoop=1;jettySize=auto;html=1;" edge="1" parent="3Oip8ub-MyP_PfwpptW2-1" source="3Oip8ub-MyP_PfwpptW2-116" target="3Oip8ub-MyP_PfwpptW2-135">
          <mxGeometry relative="1" as="geometry" />
        </mxCell>
        <mxCell id="3Oip8ub-MyP_PfwpptW2-115" style="edgeStyle=orthogonalEdgeStyle;rounded=0;orthogonalLoop=1;jettySize=auto;html=1;entryX=1;entryY=0.75;entryDx=0;entryDy=0;" edge="1" parent="3Oip8ub-MyP_PfwpptW2-1" source="3Oip8ub-MyP_PfwpptW2-116" target="3Oip8ub-MyP_PfwpptW2-134">
          <mxGeometry relative="1" as="geometry" />
        </mxCell>
        <mxCell id="3Oip8ub-MyP_PfwpptW2-116" value="Quản lý bài viết" style="ellipse;whiteSpace=wrap;html=1;" vertex="1" parent="3Oip8ub-MyP_PfwpptW2-1">
          <mxGeometry x="587" y="50" width="80" height="50" as="geometry" />
        </mxCell>
        <mxCell id="3Oip8ub-MyP_PfwpptW2-117" value="&lt;strong&gt;Xem thống kê&lt;/strong&gt;" style="rounded=1;whiteSpace=wrap;html=1;" vertex="1" parent="3Oip8ub-MyP_PfwpptW2-1">
          <mxGeometry x="440" y="840" width="120" height="30" as="geometry" />
        </mxCell>
        <mxCell id="3Oip8ub-MyP_PfwpptW2-118" value="Xem bình luận" style="rounded=1;whiteSpace=wrap;html=1;" vertex="1" parent="3Oip8ub-MyP_PfwpptW2-1">
          <mxGeometry x="440" y="770" width="120" height="30" as="geometry" />
        </mxCell>
        <mxCell id="3Oip8ub-MyP_PfwpptW2-119" value="&lt;strong&gt;Xem và phản hồi liên hệ&lt;/strong&gt;" style="rounded=1;whiteSpace=wrap;html=1;" vertex="1" parent="3Oip8ub-MyP_PfwpptW2-1">
          <mxGeometry x="440" y="680" width="120" height="30" as="geometry" />
        </mxCell>
        <mxCell id="3Oip8ub-MyP_PfwpptW2-120" value="Xem danh sách nhân viên" style="rounded=1;whiteSpace=wrap;html=1;" vertex="1" parent="3Oip8ub-MyP_PfwpptW2-1">
          <mxGeometry x="440" y="590" width="120" height="30" as="geometry" />
        </mxCell>
        <mxCell id="3Oip8ub-MyP_PfwpptW2-121" value="Chỉnh sửa thông tin tài khoản cá nhân" style="rounded=1;whiteSpace=wrap;html=1;" vertex="1" parent="3Oip8ub-MyP_PfwpptW2-1">
          <mxGeometry x="440" y="490" width="120" height="30" as="geometry" />
        </mxCell>
        <mxCell id="3Oip8ub-MyP_PfwpptW2-122" value="Quản lý quyền hạn" style="rounded=1;whiteSpace=wrap;html=1;" vertex="1" parent="3Oip8ub-MyP_PfwpptW2-1">
          <mxGeometry x="440" y="535" width="120" height="30" as="geometry" />
        </mxCell>
        <mxCell id="3Oip8ub-MyP_PfwpptW2-123" style="edgeStyle=orthogonalEdgeStyle;rounded=0;orthogonalLoop=1;jettySize=auto;html=1;entryX=0.963;entryY=0.422;entryDx=0;entryDy=0;entryPerimeter=0;" edge="1" parent="3Oip8ub-MyP_PfwpptW2-1" source="3Oip8ub-MyP_PfwpptW2-96" target="3Oip8ub-MyP_PfwpptW2-120">
          <mxGeometry relative="1" as="geometry" />
        </mxCell>
        <mxCell id="3Oip8ub-MyP_PfwpptW2-124" value="Theo dõi&amp;nbsp;bài viết, tour, dịch vụ, quảng cáo" style="rounded=1;whiteSpace=wrap;html=1;" vertex="1" parent="3Oip8ub-MyP_PfwpptW2-1">
          <mxGeometry x="400" y="420" width="150" height="30" as="geometry" />
        </mxCell>
        <mxCell id="3Oip8ub-MyP_PfwpptW2-125" value="Đưa ra nhận xét và đề xuất" style="rounded=1;whiteSpace=wrap;html=1;" vertex="1" parent="3Oip8ub-MyP_PfwpptW2-1">
          <mxGeometry x="400" y="460" width="155" height="20" as="geometry" />
        </mxCell>
        <mxCell id="3Oip8ub-MyP_PfwpptW2-126" value="Tạo, chỉnh sửa qc" style="rounded=1;whiteSpace=wrap;html=1;" vertex="1" parent="3Oip8ub-MyP_PfwpptW2-1">
          <mxGeometry x="440" y="370" width="120" height="25" as="geometry" />
        </mxCell>
        <mxCell id="3Oip8ub-MyP_PfwpptW2-127" style="edgeStyle=orthogonalEdgeStyle;rounded=0;orthogonalLoop=1;jettySize=auto;html=1;entryX=0.966;entryY=0.299;entryDx=0;entryDy=0;entryPerimeter=0;" edge="1" parent="3Oip8ub-MyP_PfwpptW2-1" source="3Oip8ub-MyP_PfwpptW2-107" target="3Oip8ub-MyP_PfwpptW2-126">
          <mxGeometry relative="1" as="geometry" />
        </mxCell>
        <mxCell id="3Oip8ub-MyP_PfwpptW2-128" value="Thêm, sửa dịch vụ:&amp;nbsp;hướng dẫn viên, xe đưa đón, bảo hiểm du lịch, giá cả" style="rounded=1;whiteSpace=wrap;html=1;" vertex="1" parent="3Oip8ub-MyP_PfwpptW2-1">
          <mxGeometry x="440" y="275" width="120" height="65" as="geometry" />
        </mxCell>
        <mxCell id="3Oip8ub-MyP_PfwpptW2-129" value="Xem danh sách" style="rounded=1;whiteSpace=wrap;html=1;" vertex="1" parent="3Oip8ub-MyP_PfwpptW2-1">
          <mxGeometry x="440" y="192.5" width="120" height="17.5" as="geometry" />
        </mxCell>
        <mxCell id="3Oip8ub-MyP_PfwpptW2-130" value="Cập nhật trạng thái" style="rounded=1;whiteSpace=wrap;html=1;" vertex="1" parent="3Oip8ub-MyP_PfwpptW2-1">
          <mxGeometry x="440" y="216.25" width="120" height="17.5" as="geometry" />
        </mxCell>
        <mxCell id="3Oip8ub-MyP_PfwpptW2-131" value="Chỉnh sửa thông tin tour" style="rounded=1;whiteSpace=wrap;html=1;" vertex="1" parent="3Oip8ub-MyP_PfwpptW2-1">
          <mxGeometry x="420" y="240" width="140" height="17.5" as="geometry" />
        </mxCell>
        <mxCell id="3Oip8ub-MyP_PfwpptW2-132" style="edgeStyle=orthogonalEdgeStyle;rounded=0;orthogonalLoop=1;jettySize=auto;html=1;entryX=0.908;entryY=0.748;entryDx=0;entryDy=0;entryPerimeter=0;" edge="1" parent="3Oip8ub-MyP_PfwpptW2-1" source="3Oip8ub-MyP_PfwpptW2-112" target="3Oip8ub-MyP_PfwpptW2-130">
          <mxGeometry relative="1" as="geometry" />
        </mxCell>
        <mxCell id="3Oip8ub-MyP_PfwpptW2-133" value="Tạo, c&lt;span style=&quot;color: rgba(0, 0, 0, 0); font-family: monospace; font-size: 0px; text-align: start; text-wrap: nowrap;&quot;&gt;%3CmxGraphModel%3E%3Croot%3E%3CmxCell%20id%3D%220%22%2F%3E%3CmxCell%20id%3D%221%22%20parent%3D%220%22%2F%3E%3CmxCell%20id%3D%222%22%20value%3D%22Ch%E1%BB%89nh%20s%E1%BB%ADa%20tour%22%20style%3D%22rounded%3D1%3BwhiteSpace%3Dwrap%3Bhtml%3D1%3B%22%20vertex%3D%221%22%20parent%3D%221%22%3E%3CmxGeometry%20x%3D%22980%22%20y%3D%22175%22%20width%3D%22120%22%20height%3D%2230%22%20as%3D%22geometry%22%2F%3E%3C%2FmxCell%3E%3C%2Froot%3E%3C%2FmxGraphModel%3E&lt;/span&gt;hỉnh sửa tour" style="rounded=1;whiteSpace=wrap;html=1;" vertex="1" parent="3Oip8ub-MyP_PfwpptW2-1">
          <mxGeometry x="440" y="140" width="120" height="30" as="geometry" />
        </mxCell>
        <mxCell id="3Oip8ub-MyP_PfwpptW2-134" value="Tạo bài viết" style="rounded=1;whiteSpace=wrap;html=1;" vertex="1" parent="3Oip8ub-MyP_PfwpptW2-1">
          <mxGeometry x="440" y="25" width="120" height="30" as="geometry" />
        </mxCell>
        <mxCell id="3Oip8ub-MyP_PfwpptW2-135" value="Chỉnh sửa bài viết" style="rounded=1;whiteSpace=wrap;html=1;" vertex="1" parent="3Oip8ub-MyP_PfwpptW2-1">
          <mxGeometry x="440" y="70" width="120" height="30" as="geometry" />
        </mxCell>
        <mxCell id="3Oip8ub-MyP_PfwpptW2-136" style="edgeStyle=orthogonalEdgeStyle;rounded=0;orthogonalLoop=1;jettySize=auto;html=1;entryX=0.917;entryY=0.5;entryDx=0;entryDy=0;entryPerimeter=0;" edge="1" parent="3Oip8ub-MyP_PfwpptW2-1" source="3Oip8ub-MyP_PfwpptW2-113" target="3Oip8ub-MyP_PfwpptW2-133">
          <mxGeometry relative="1" as="geometry" />
        </mxCell>
        <mxCell id="3Oip8ub-MyP_PfwpptW2-161" value="" style="endArrow=none;html=1;rounded=0;" edge="1" parent="3Oip8ub-MyP_PfwpptW2-1">
          <mxGeometry width="50" height="50" relative="1" as="geometry">
            <mxPoint x="700" y="70" as="sourcePoint" />
            <mxPoint x="700" y="870" as="targetPoint" />
            <Array as="points">
              <mxPoint x="700" y="545.46" />
            </Array>
          </mxGeometry>
        </mxCell>
        <mxCell id="3Oip8ub-MyP_PfwpptW2-165" value="" style="endArrow=classic;html=1;rounded=0;entryX=1;entryY=0.5;entryDx=0;entryDy=0;" edge="1" parent="3Oip8ub-MyP_PfwpptW2-1">
          <mxGeometry width="50" height="50" relative="1" as="geometry">
            <mxPoint x="700" y="307.27" as="sourcePoint" />
            <mxPoint x="667" y="307.27" as="targetPoint" />
          </mxGeometry>
        </mxCell>
        <mxCell id="3Oip8ub-MyP_PfwpptW2-166" value="" style="endArrow=classic;html=1;rounded=0;entryX=1;entryY=0.5;entryDx=0;entryDy=0;" edge="1" parent="3Oip8ub-MyP_PfwpptW2-1">
          <mxGeometry width="50" height="50" relative="1" as="geometry">
            <mxPoint x="700" y="229.76999999999998" as="sourcePoint" />
            <mxPoint x="667" y="229.76999999999998" as="targetPoint" />
          </mxGeometry>
        </mxCell>
        <mxCell id="3Oip8ub-MyP_PfwpptW2-167" value="" style="endArrow=classic;html=1;rounded=0;entryX=1;entryY=0.5;entryDx=0;entryDy=0;" edge="1" parent="3Oip8ub-MyP_PfwpptW2-1">
          <mxGeometry width="50" height="50" relative="1" as="geometry">
            <mxPoint x="700" y="154.76999999999998" as="sourcePoint" />
            <mxPoint x="667" y="154.76999999999998" as="targetPoint" />
          </mxGeometry>
        </mxCell>
        <mxCell id="3Oip8ub-MyP_PfwpptW2-168" value="" style="endArrow=classic;html=1;rounded=0;entryX=1;entryY=0.5;entryDx=0;entryDy=0;" edge="1" parent="3Oip8ub-MyP_PfwpptW2-1">
          <mxGeometry width="50" height="50" relative="1" as="geometry">
            <mxPoint x="700" y="70" as="sourcePoint" />
            <mxPoint x="667" y="70" as="targetPoint" />
          </mxGeometry>
        </mxCell>
        <mxCell id="3Oip8ub-MyP_PfwpptW2-171" value="" style="endArrow=classic;html=1;rounded=0;entryX=1;entryY=0.5;entryDx=0;entryDy=0;" edge="1" parent="3Oip8ub-MyP_PfwpptW2-1">
          <mxGeometry width="50" height="50" relative="1" as="geometry">
            <mxPoint x="700" y="454.77" as="sourcePoint" />
            <mxPoint x="667" y="454.77" as="targetPoint" />
          </mxGeometry>
        </mxCell>
        <mxCell id="3Oip8ub-MyP_PfwpptW2-170" value="" style="endArrow=classic;html=1;rounded=0;entryX=1;entryY=0.5;entryDx=0;entryDy=0;" edge="1" parent="3Oip8ub-MyP_PfwpptW2-1">
          <mxGeometry width="50" height="50" relative="1" as="geometry">
            <mxPoint x="700" y="524.77" as="sourcePoint" />
            <mxPoint x="667" y="524.77" as="targetPoint" />
          </mxGeometry>
        </mxCell>
        <mxCell id="3Oip8ub-MyP_PfwpptW2-169" value="" style="endArrow=classic;html=1;rounded=0;entryX=1;entryY=0.5;entryDx=0;entryDy=0;" edge="1" parent="3Oip8ub-MyP_PfwpptW2-1">
          <mxGeometry width="50" height="50" relative="1" as="geometry">
            <mxPoint x="700" y="604.77" as="sourcePoint" />
            <mxPoint x="667" y="604.77" as="targetPoint" />
          </mxGeometry>
        </mxCell>
        <mxCell id="3Oip8ub-MyP_PfwpptW2-173" value="" style="endArrow=classic;html=1;rounded=0;entryX=1;entryY=0.5;entryDx=0;entryDy=0;" edge="1" parent="3Oip8ub-MyP_PfwpptW2-1">
          <mxGeometry width="50" height="50" relative="1" as="geometry">
            <mxPoint x="700" y="694.77" as="sourcePoint" />
            <mxPoint x="667" y="694.77" as="targetPoint" />
          </mxGeometry>
        </mxCell>
        <mxCell id="3Oip8ub-MyP_PfwpptW2-172" value="" style="endArrow=classic;html=1;rounded=0;entryX=1;entryY=0.5;entryDx=0;entryDy=0;" edge="1" parent="3Oip8ub-MyP_PfwpptW2-1">
          <mxGeometry width="50" height="50" relative="1" as="geometry">
            <mxPoint x="700" y="784.77" as="sourcePoint" />
            <mxPoint x="667" y="784.77" as="targetPoint" />
          </mxGeometry>
        </mxCell>
        <mxCell id="3Oip8ub-MyP_PfwpptW2-174" value="" style="endArrow=classic;html=1;rounded=0;entryX=1;entryY=0.5;entryDx=0;entryDy=0;" edge="1" parent="3Oip8ub-MyP_PfwpptW2-1">
          <mxGeometry width="50" height="50" relative="1" as="geometry">
            <mxPoint x="700" y="864.77" as="sourcePoint" />
            <mxPoint x="667" y="864.77" as="targetPoint" />
          </mxGeometry>
        </mxCell>
        <mxCell id="3Oip8ub-MyP_PfwpptW2-137" style="edgeStyle=orthogonalEdgeStyle;rounded=0;orthogonalLoop=1;jettySize=auto;html=1;" edge="1" parent="1">
          <mxGeometry relative="1" as="geometry">
            <mxPoint x="60" y="580" as="sourcePoint" />
            <mxPoint x="130" y="580" as="targetPoint" />
          </mxGeometry>
        </mxCell>
        <mxCell id="3Oip8ub-MyP_PfwpptW2-138" style="edgeStyle=orthogonalEdgeStyle;rounded=0;orthogonalLoop=1;jettySize=auto;html=1;" edge="1" parent="1" source="3Oip8ub-MyP_PfwpptW2-140">
          <mxGeometry relative="1" as="geometry">
            <mxPoint x="310" y="200" as="targetPoint" />
            <Array as="points">
              <mxPoint x="140" y="580" />
              <mxPoint x="140" y="200" />
            </Array>
          </mxGeometry>
        </mxCell>
        <mxCell id="3Oip8ub-MyP_PfwpptW2-139" style="edgeStyle=orthogonalEdgeStyle;rounded=0;orthogonalLoop=1;jettySize=auto;html=1;" edge="1" parent="1" source="3Oip8ub-MyP_PfwpptW2-140">
          <mxGeometry relative="1" as="geometry">
            <mxPoint x="310" y="960" as="targetPoint" />
            <Array as="points">
              <mxPoint x="140" y="580" />
              <mxPoint x="140" y="960" />
            </Array>
          </mxGeometry>
        </mxCell>
        <mxCell id="3Oip8ub-MyP_PfwpptW2-140" value="Users&amp;nbsp;" style="shape=umlActor;verticalLabelPosition=bottom;verticalAlign=top;html=1;outlineConnect=0;" vertex="1" parent="1">
          <mxGeometry x="10" y="520" width="60" height="120" as="geometry" />
        </mxCell>
        <mxCell id="3Oip8ub-MyP_PfwpptW2-141" style="edgeStyle=orthogonalEdgeStyle;rounded=0;orthogonalLoop=1;jettySize=auto;html=1;" edge="1" parent="1">
          <mxGeometry relative="1" as="geometry">
            <mxPoint x="1570" y="580" as="sourcePoint" />
            <mxPoint x="1520" y="580" as="targetPoint" />
          </mxGeometry>
        </mxCell>
        <mxCell id="3Oip8ub-MyP_PfwpptW2-142" style="edgeStyle=orthogonalEdgeStyle;rounded=0;orthogonalLoop=1;jettySize=auto;html=1;entryX=0;entryY=0.5;entryDx=0;entryDy=0;" edge="1" parent="1" source="3Oip8ub-MyP_PfwpptW2-144" target="3Oip8ub-MyP_PfwpptW2-31">
          <mxGeometry relative="1" as="geometry">
            <Array as="points">
              <mxPoint x="310" y="580" />
              <mxPoint x="310" y="485" />
            </Array>
          </mxGeometry>
        </mxCell>
        <mxCell id="3Oip8ub-MyP_PfwpptW2-143" style="edgeStyle=orthogonalEdgeStyle;rounded=0;orthogonalLoop=1;jettySize=auto;html=1;entryX=0;entryY=0.5;entryDx=0;entryDy=0;" edge="1" parent="1" source="3Oip8ub-MyP_PfwpptW2-144" target="3Oip8ub-MyP_PfwpptW2-40">
          <mxGeometry relative="1" as="geometry" />
        </mxCell>
        <mxCell id="3Oip8ub-MyP_PfwpptW2-144" value="Customer&amp;nbsp;" style="shape=umlActor;verticalLabelPosition=bottom;verticalAlign=top;html=1;outlineConnect=0;" vertex="1" parent="1">
          <mxGeometry x="150" y="520" width="60" height="120" as="geometry" />
        </mxCell>
        <mxCell id="3Oip8ub-MyP_PfwpptW2-145" style="edgeStyle=orthogonalEdgeStyle;rounded=0;orthogonalLoop=1;jettySize=auto;html=1;" edge="1" parent="1" source="3Oip8ub-MyP_PfwpptW2-149">
          <mxGeometry relative="1" as="geometry">
            <mxPoint x="940" y="475" as="targetPoint" />
            <Array as="points">
              <mxPoint x="1350" y="580" />
              <mxPoint x="1350" y="480" />
              <mxPoint x="1174" y="480" />
              <mxPoint x="1174" y="475" />
            </Array>
          </mxGeometry>
        </mxCell>
        <mxCell id="3Oip8ub-MyP_PfwpptW2-146" style="edgeStyle=orthogonalEdgeStyle;rounded=0;orthogonalLoop=1;jettySize=auto;html=1;entryX=1;entryY=0.5;entryDx=0;entryDy=0;" edge="1" parent="1" source="3Oip8ub-MyP_PfwpptW2-149" target="3Oip8ub-MyP_PfwpptW2-88">
          <mxGeometry relative="1" as="geometry" />
        </mxCell>
        <mxCell id="3Oip8ub-MyP_PfwpptW2-147" style="edgeStyle=orthogonalEdgeStyle;rounded=0;orthogonalLoop=1;jettySize=auto;html=1;entryX=1;entryY=0.5;entryDx=0;entryDy=0;" edge="1" parent="1" source="3Oip8ub-MyP_PfwpptW2-149" target="3Oip8ub-MyP_PfwpptW2-83">
          <mxGeometry relative="1" as="geometry">
            <Array as="points">
              <mxPoint x="1350" y="580" />
              <mxPoint x="1350" y="555" />
            </Array>
          </mxGeometry>
        </mxCell>
        <mxCell id="3Oip8ub-MyP_PfwpptW2-148" style="edgeStyle=orthogonalEdgeStyle;rounded=0;orthogonalLoop=1;jettySize=auto;html=1;entryX=1;entryY=0.5;entryDx=0;entryDy=0;" edge="1" parent="1" source="3Oip8ub-MyP_PfwpptW2-149" target="3Oip8ub-MyP_PfwpptW2-86">
          <mxGeometry relative="1" as="geometry">
            <Array as="points">
              <mxPoint x="1350" y="580" />
              <mxPoint x="1350" y="615" />
            </Array>
          </mxGeometry>
        </mxCell>
        <mxCell id="3Oip8ub-MyP_PfwpptW2-149" value="Employee" style="shape=umlActor;verticalLabelPosition=bottom;verticalAlign=top;html=1;outlineConnect=0;" vertex="1" parent="1">
          <mxGeometry x="1440" y="520" width="60" height="120" as="geometry" />
        </mxCell>
        <mxCell id="3Oip8ub-MyP_PfwpptW2-150" style="edgeStyle=orthogonalEdgeStyle;rounded=0;orthogonalLoop=1;jettySize=auto;html=1;entryX=1;entryY=0.5;entryDx=0;entryDy=0;" edge="1" parent="1" source="3Oip8ub-MyP_PfwpptW2-154" target="3Oip8ub-MyP_PfwpptW2-67">
          <mxGeometry relative="1" as="geometry">
            <Array as="points">
              <mxPoint x="1520" y="580" />
              <mxPoint x="1520" y="850" />
              <mxPoint x="1320" y="850" />
            </Array>
          </mxGeometry>
        </mxCell>
        <mxCell id="3Oip8ub-MyP_PfwpptW2-151" style="edgeStyle=orthogonalEdgeStyle;rounded=0;orthogonalLoop=1;jettySize=auto;html=1;entryX=1;entryY=0.5;entryDx=0;entryDy=0;" edge="1" parent="1" source="3Oip8ub-MyP_PfwpptW2-154" target="3Oip8ub-MyP_PfwpptW2-63">
          <mxGeometry relative="1" as="geometry">
            <Array as="points">
              <mxPoint x="1520" y="580" />
              <mxPoint x="1520" y="950" />
            </Array>
          </mxGeometry>
        </mxCell>
        <mxCell id="3Oip8ub-MyP_PfwpptW2-152" style="edgeStyle=orthogonalEdgeStyle;rounded=0;orthogonalLoop=1;jettySize=auto;html=1;entryX=1;entryY=0.5;entryDx=0;entryDy=0;" edge="1" parent="1" source="3Oip8ub-MyP_PfwpptW2-154" target="3Oip8ub-MyP_PfwpptW2-52">
          <mxGeometry relative="1" as="geometry">
            <Array as="points">
              <mxPoint x="1520" y="580" />
              <mxPoint x="1520" y="210" />
            </Array>
          </mxGeometry>
        </mxCell>
        <mxCell id="3Oip8ub-MyP_PfwpptW2-153" style="edgeStyle=orthogonalEdgeStyle;rounded=0;orthogonalLoop=1;jettySize=auto;html=1;entryX=1;entryY=0.5;entryDx=0;entryDy=0;" edge="1" parent="1" source="3Oip8ub-MyP_PfwpptW2-154" target="3Oip8ub-MyP_PfwpptW2-57">
          <mxGeometry relative="1" as="geometry">
            <Array as="points">
              <mxPoint x="1520" y="580" />
              <mxPoint x="1520" y="360" />
            </Array>
          </mxGeometry>
        </mxCell>
        <mxCell id="3Oip8ub-MyP_PfwpptW2-154" value="Admin" style="shape=umlActor;verticalLabelPosition=bottom;verticalAlign=top;html=1;outlineConnect=0;" vertex="1" parent="1">
          <mxGeometry x="1570" y="520" width="60" height="120" as="geometry" />
        </mxCell>
        <mxCell id="3Oip8ub-MyP_PfwpptW2-155" value="" style="endArrow=classic;html=1;rounded=0;" edge="1" parent="1">
          <mxGeometry width="50" height="50" relative="1" as="geometry">
            <mxPoint x="140" y="290" as="sourcePoint" />
            <mxPoint x="310" y="290" as="targetPoint" />
          </mxGeometry>
        </mxCell>
        <mxCell id="3Oip8ub-MyP_PfwpptW2-156" value="" style="endArrow=classic;html=1;rounded=0;entryX=0;entryY=0.5;entryDx=0;entryDy=0;" edge="1" parent="1">
          <mxGeometry width="50" height="50" relative="1" as="geometry">
            <mxPoint x="140" y="870.36" as="sourcePoint" />
            <mxPoint x="310" y="870" as="targetPoint" />
          </mxGeometry>
        </mxCell>
        <mxCell id="3Oip8ub-MyP_PfwpptW2-157" value="" style="endArrow=classic;html=1;rounded=0;entryX=0;entryY=0.5;entryDx=0;entryDy=0;" edge="1" parent="1">
          <mxGeometry width="50" height="50" relative="1" as="geometry">
            <mxPoint x="140" y="780.07" as="sourcePoint" />
            <mxPoint x="310" y="779.71" as="targetPoint" />
          </mxGeometry>
        </mxCell>
        <mxCell id="3Oip8ub-MyP_PfwpptW2-158" value="" style="endArrow=classic;html=1;rounded=0;" edge="1" parent="1">
          <mxGeometry width="50" height="50" relative="1" as="geometry">
            <mxPoint x="310" y="560" as="sourcePoint" />
            <mxPoint x="380" y="560" as="targetPoint" />
          </mxGeometry>
        </mxCell>
        <mxCell id="3Oip8ub-MyP_PfwpptW2-159" value="Tạo báo cáo" style="rounded=1;whiteSpace=wrap;html=1;" vertex="1" parent="1">
          <mxGeometry x="680" y="1000" width="120" height="30" as="geometry" />
        </mxCell>
        <mxCell id="3Oip8ub-MyP_PfwpptW2-160" style="edgeStyle=orthogonalEdgeStyle;rounded=0;orthogonalLoop=1;jettySize=auto;html=1;entryX=1;entryY=0.5;entryDx=0;entryDy=0;" edge="1" parent="1" source="3Oip8ub-MyP_PfwpptW2-103" target="3Oip8ub-MyP_PfwpptW2-159">
          <mxGeometry relative="1" as="geometry" />
        </mxCell>
        <mxCell id="3Oip8ub-MyP_PfwpptW2-164" value="" style="endArrow=classic;html=1;rounded=0;entryX=1;entryY=0.5;entryDx=0;entryDy=0;" edge="1" parent="1" target="3Oip8ub-MyP_PfwpptW2-107">
          <mxGeometry width="50" height="50" relative="1" as="geometry">
            <mxPoint x="940" y="500" as="sourcePoint" />
            <mxPoint x="920" y="440" as="targetPoint" />
          </mxGeometry>
        </mxCell>
      </root>
    </mxGraphModel>
  </diagram>
</mxfile>
